/* XPM */
static char * char_xpm[] = {
"32 32 8 1",
" 	c #000000",
".	c #31314B",
"+	c #70162B",
"@	c #EF3E6D",
"#	c #10162E",
"$	c #FB9B72",
"%	c #5A5875",
"&	c #FFFFFF",
"                                ",
"               ..               ",
"              .+.               ",
"             .@...              ",
"            .@+...              ",
"            .@.....             ",
"           .@@@@...             ",
"           +....+..             ",
"          ..@@@@.+..            ",
"          .@####@...            ",
"          +##$###@...           ",
"          .#$$$$$.+++.          ",
"         ...#$$$#.....          ",
"        .+...###....@+          ",
"        ..@...#....@...         ",
"       ...@...#...@.....        ",
"       ...@...@...@.....        ",
"       ...@.@@@@@.@.....        ",
"       ...@...@...@.....        ",
"      ....@..@@@..@......       ",
"      ....@...@...@......       ",
"      %...@.......@......       ",
"      %%..@...@...@.....%       ",
"      %%%.@.@@@@@.@....%%       ",
"      %%%.@...@...@..%%%%       ",
"       %%.@...@...@..%%%        ",
"        %.@..@@@..@..%%         ",
"         .@...@...@...          ",
"         .@.......@...          ",
"         .@@@@@@@@@...          ",
"          ...........           ",
"           .........            "};
