/* XPM */
static char * collect_xpm[] = {
"32 32 2 1",
" 	c #1B0B0B",
".	c #FFFFFF",
"                                ",
"                                ",
"                                ",
"                                ",
"                                ",
"                                ",
"                                ",
"        .             .         ",
"       ...           ...        ",
"       ...           ...        ",
"       ... ......... ...        ",
"       ... .....  .. ...        ",
"       ... ......... ...        ",
"       ... .  ...... ...        ",
"       ... ......... ...        ",
"       ... .....  .. ...        ",
"       ... ......... ...        ",
"       ... ..  ..... ...        ",
"       ... ......... ...        ",
"       ... ..  ..... ...        ",
"       . . ......... . .        ",
"           .....  ..            ",
"          ...........           ",
"                                ",
"                                ",
"                                ",
"                                ",
"                                ",
"                                ",
"                                ",
"                                ",
"                                "};
