/* XPM */
static char * exit_xpm[] = {
"32 32 5 1",
" 	c #000000",
".	c #70162B",
"+	c #0C1317",
"@	c #EF3E6D",
"#	c #FFFFFF",
"++++++++++++++++++++++++++++++++",
"++++++++++++++++++++++++++++++++",
"++++++++++++++++++++++++++++++++",
"++++++++++++++++++++++++++++++++",
"++++++++++++++++++++++++++++++++",
"++++++++++++++++++++++++++++++++",
"+++++++++++..........+++++++++++",
"++++++++......++++......++++++++",
"++++++@@++++++++++++++++@@++++++",
"++++...@@++++++++++++++@@...++++",
"+++...+@+@@++++++++++@@+@+...+++",
"++..+++@+++@@++++++@@+++@+++..++",
"+..+++++@++++@@++@@++++@+++++..+",
"+..+++++@+++++@@@@+++++@+++++..+",
"..+++++++@+@@@++++@@@+@+++++++..",
"..++++++@@@++++++++++@@@++++++..",
"..+++@@@++@++++++++++@++@@@+++..",
"..+@@+++++@++++++++++@+++++@@+..",
".@@@@@@@@@@@@@@@@@@@@@@@@@@@@@@.",
"+..+++++++++@++++++@+++++++++..+",
"+..+++++++++@++++++@+++++++++..+",
"++..+++++++++@++++@+++++++++..++",
"+++..++++++++@++++@++++++++..+++",
"++++...+++++++@++@+++++++...++++",
"++++++...+++++@++@+++++...++++++",
"++++++++.....++@@++.....++++++++",
"+++++++++++....@@....+++++++++++",
"++++++++++++++++++++++++++++++++",
"++++++++++++++++++++++++++++++++",
"++++++++++++++++++++++++++++++++",
"++++++++++++++++++++++++++++++++",
"++++++++++++++++++++++++++++++++"};
